<svg width="64" height="64" viewBox="0 0 64 64" fill="none" xmlns="http://www.w3.org/2000/svg" role="img" aria-labelledby="logoMarkTitle logoMarkDesc">
  <title id="logoMarkTitle">Cyber Crime Tracker mark</title>
  <desc id="logoMarkDesc">A shield outline with a fingerprint motif rendered in cyan.</desc>
  <g id="shield-mark" stroke="#12C8D4" stroke-linecap="round" stroke-linejoin="round">
    <path d="M32 6L49.5 10V31.2C49.5 41.7 42.8 50.9 32 56C21.2 50.9 14.5 41.7 14.5 31.2V10L32 6Z" stroke-width="2.8"/>
    <g id="fingerprint" stroke-width="2.4">
      <path d="M27.7 40.2C23.2 36.9 22.1 29.8 25.4 24.9C28.5 20.2 35.1 18.7 40.1 21.5C44.9 24.2 47.1 30.4 45.4 35.8"/>
      <path d="M24 35.5C20.8 30.2 21.7 22.9 26.3 18.4C31.4 13.4 39.8 13 45.3 17.7"/>
      <path d="M29.5 44C35.4 40.8 39 36.2 39.2 30.6C39.3 27.7 38.3 24.6 35.4 23.1C32.8 21.8 29.5 22.5 27.5 25.1"/>
      <path d="M19.7 31.3C18.5 24.5 20.9 17.9 26.4 13.9C31.7 10 39 9.5 45.1 12.5"/>
      <path d="M34 46.8C40.7 42.2 44.2 36.5 43.9 29.7C43.7 24.3 40.4 19.3 34.8 17.4"/>
      <path d="M23.2 42.7C29.7 39.7 33.9 34.8 34.4 29.1C34.6 26.8 33.8 24.5 31.9 23.4"/>
      <path d="M37.8 45.9C43.8 41.7 47.3 35.4 47.2 28.6C47.1 23 44.4 17.8 39.7 14.7"/>
    </g>
  </g>
</svg>
