<svg width="560" height="180" viewBox="0 0 560 180" fill="none" xmlns="http://www.w3.org/2000/svg" role="img" aria-labelledby="logoLightTitle logoLightDesc">
  <title id="logoLightTitle">Cyber Crime Tracker logo for light backgrounds</title>
  <desc id="logoLightDesc">Stacked Cyber Crime Tracker logo with navy shield icon and navy wordmark.</desc>
  <g id="logo-light" transform="translate(115 12)">
    <g id="icon" transform="translate(76 0)" stroke="#163768" stroke-linecap="round" stroke-linejoin="round">
      <path d="M52 8L80 14.4V48.2C80 63.5 70.4 76.7 52 85.4C33.6 76.7 24 63.5 24 48.2V14.4L52 8Z" stroke-width="4.2"/>
      <g id="print" stroke-width="3.6">
        <path d="M45 63.3C37.8 58.1 36.1 46.8 41.3 39.1C46.3 31.7 56.9 29.3 64.9 33.9C72.6 38.2 76.1 48.1 73.3 56.6"/>
        <path d="M39 55.8C33.8 47.4 35.3 36 42.7 28.9C50.7 21.1 63.6 20.4 72 27.7"/>
        <path d="M48 69.2C57.1 64.2 62.7 57.2 63 48.4C63.2 43.8 61.7 39.1 57.2 36.8C53.3 34.7 48.8 35.9 45.8 39.9"/>
        <path d="M31.8 49.6C29.9 38.8 33.7 28.4 42.3 22.1C50.7 15.9 62.3 15.2 71.9 20"/>
        <path d="M55.2 73.7C65.5 66.8 70.9 57.7 70.5 47C70.2 38.5 65 30.7 56.2 27.7"/>
        <path d="M37.8 67C47.8 62.2 54.2 54.6 54.9 45.7C55.2 42.2 53.9 38.7 51 37"/>
      </g>
    </g>
    <text x="0" y="154" font-family="Inter, Poppins, 'Segoe UI', Arial, sans-serif" font-size="36" font-weight="400" fill="#163768">Cyber Crime Tracker</text>
  </g>
</svg>
