<svg width="420" height="120" viewBox="0 0 420 120" fill="none" xmlns="http://www.w3.org/2000/svg" role="img" aria-labelledby="logoTitle logoDesc">
  <title id="logoTitle">Cyber Crime Tracker logo</title>
  <desc id="logoDesc">Simple official wordmark with a shield and investigation lens symbol.</desc>
  <g id="icon" transform="translate(10 20)">
    <path d="M40 4C53.5 4 63 11.9 63 23.8V30.2C63 42.6 55.2 53.7 40 58C24.8 53.7 17 42.6 17 30.2V23.8C17 11.9 26.5 4 40 4Z" fill="#0B1F3A"/>
    <path d="M40 10C50 10 57 15.8 57 25.3V29C57 38.8 50.8 46.9 40 50.8C29.2 46.9 23 38.8 23 29V25.3C23 15.8 30 10 40 10Z" stroke="#00C2D1" stroke-width="2.2" stroke-linejoin="round"/>
    <circle cx="37" cy="28" r="7.5" stroke="#F8FBFF" stroke-width="3"/>
    <path d="M42.8 33.8L48.5 39.5" stroke="#F8FBFF" stroke-width="3" stroke-linecap="round"/>
    <path d="M34 28H40" stroke="#00C2D1" stroke-width="2.4" stroke-linecap="round"/>
    <circle cx="54.5" cy="17.5" r="2.5" fill="#00C2D1"/>
  </g>
  <g id="wordmark" transform="translate(104 30)" font-family="Inter, Manrope, 'Segoe UI', Arial, sans-serif">
    <text x="0" y="14" font-size="14" font-weight="700" letter-spacing="3" fill="#365677">CYBER CRIME</text>
    <text x="0" y="48" font-size="34" font-weight="800" fill="#0B1F3A">Tracker</text>
    <path d="M0 62H168" stroke="#D7E3EF" stroke-width="2"/>
    <text x="0" y="84" font-size="12" font-weight="600" letter-spacing="1.6" fill="#587694">SECURE REPORTING PLATFORM</text>
  </g>
</svg>
